<svg width="16" height="16" viewBox="0 0 16 16" fill="none" xmlns="http://www.w3.org/2000/svg">
<g clip-path="url(#clip0_325_1488)">
<path d="M10.1213 5.87868C11.2929 7.05025 11.2929 8.94975 10.1213 10.1213C8.94975 11.2929 7.05025 11.2929 5.87868 10.1213C4.70711 8.94975 4.70711 7.05025 5.87868 5.87868C7.05025 4.70711 8.94975 4.70711 10.1213 5.87868Z" fill="black"/>
<path d="M11.5 0H4.5C2.01855 0 0 2.01855 0 4.5V11.5C0 13.9815 2.01855 16 4.5 16H11.5C13.9815 16 16 13.9815 16 11.5V4.5C16 2.01855 13.9815 0 11.5 0ZM8 12C5.79443 12 4 10.206 4 8C4 5.79395 5.79443 4 8 4C10.2056 4 12 5.79395 12 8C12 10.206 10.2056 12 8 12ZM12.5 4C12.2239 4 12 3.77612 12 3.5C12 3.22382 12.2239 3 12.5 3C12.7761 3 13 3.22382 13 3.5C13 3.77612 12.7761 4 12.5 4Z" fill="black"/>
</g>
<defs>
<clipPath id="clip0_325_1488">
<rect width="16" height="16" fill="white"/>
</clipPath>
</defs>
</svg>
