<svg width="22" height="22" viewBox="0 0 22 22" fill="none" xmlns="http://www.w3.org/2000/svg">
<g clip-path="url(#clip0_306_393)">
<path fill-rule="evenodd" clip-rule="evenodd" d="M3.20817 5.49984C3.81596 5.49984 4.39885 5.25839 4.82862 4.82862C5.25839 4.39885 5.49984 3.81596 5.49984 3.20817C5.49984 2.60038 5.25839 2.01749 4.82862 1.58772C4.39885 1.15795 3.81596 0.916504 3.20817 0.916504C2.60038 0.916504 2.01749 1.15795 1.58772 1.58772C1.15795 2.01749 0.916504 2.60038 0.916504 3.20817C0.916504 3.81596 1.15795 4.39885 1.58772 4.82862C2.01749 5.25839 2.60038 5.49984 3.20817 5.49984ZM5.49984 21.0832V7.33317H0.916504V21.0832H5.49984ZM7.33317 7.33317H11.4582V9.117C12.1145 8.25442 13.517 7.33317 16.0415 7.33317C20.0107 7.33317 21.0832 11.2932 21.0832 13.7498V21.0832H16.4998V13.7498C16.4998 12.8332 16.0415 10.9998 14.2082 10.9998C12.9065 10.9998 11.9898 11.9238 11.4582 12.7883V21.0832H7.33317V7.33317Z" fill="white"/>
</g>
<defs>
<clipPath id="clip0_306_393">
<rect width="22" height="22" fill="white"/>
</clipPath>
</defs>
</svg>
