<svg width="16" height="16" viewBox="0 0 16 16" fill="none" xmlns="http://www.w3.org/2000/svg">
<g clip-path="url(#clip0_325_1494)">
<path d="M8 0C3.589 0 0 3.589 0 8C0 12.411 3.589 16 8 16C12.411 16 16 12.411 16 8C16 3.589 12.411 0 8 0ZM11.67 11.548C11.6324 11.6018 11.5845 11.6476 11.5291 11.6829C11.4737 11.7181 11.412 11.7421 11.3473 11.7534C11.2827 11.7647 11.2164 11.7632 11.1523 11.7489C11.0883 11.7346 11.0277 11.7078 10.974 11.67C9.099 10.352 5.98 10.279 3.874 10.77C3.80998 10.7848 3.74367 10.7869 3.67884 10.7761C3.61402 10.7653 3.55195 10.7419 3.49619 10.7071C3.44043 10.6723 3.39206 10.6269 3.35385 10.5735C3.31564 10.52 3.28834 10.4595 3.2735 10.3955C3.25866 10.3315 3.25658 10.2652 3.26737 10.2003C3.27815 10.1355 3.30161 10.0735 3.33638 10.0177C3.37116 9.96193 3.41658 9.91356 3.47004 9.87535C3.52351 9.83714 3.58398 9.80984 3.648 9.795C5.963 9.259 9.423 9.357 11.548 10.852C11.6564 10.9282 11.7301 11.0443 11.753 11.1748C11.7759 11.3053 11.746 11.4395 11.67 11.548ZM12.646 9.597C12.6077 9.65033 12.5592 9.69558 12.5034 9.73017C12.4475 9.76476 12.3854 9.78801 12.3206 9.7986C12.2558 9.80919 12.1895 9.8069 12.1256 9.79187C12.0617 9.77684 12.0013 9.74936 11.948 9.711C9.773 8.15 7.101 7.762 3.535 8.49C3.47065 8.5032 3.40434 8.50359 3.33983 8.49116C3.27533 8.47873 3.21391 8.45371 3.15908 8.41755C3.10425 8.38138 3.05708 8.33476 3.02026 8.28036C2.98344 8.22597 2.9577 8.16485 2.9445 8.1005C2.9313 8.03615 2.93091 7.96984 2.94334 7.90533C2.95577 7.84083 2.98079 7.77941 3.01695 7.72458C3.05312 7.66975 3.09974 7.62258 3.15414 7.58576C3.20853 7.54894 3.26965 7.5232 3.334 7.51C7.191 6.723 10.113 7.163 12.531 8.898C12.6387 8.97563 12.7113 9.09275 12.7328 9.22376C12.7544 9.35476 12.7232 9.48896 12.646 9.597ZM13.632 6.977C13.5951 7.0314 13.5479 7.07801 13.493 7.11414C13.4381 7.15027 13.3766 7.17523 13.3121 7.18758C13.2475 7.19994 13.1812 7.19944 13.1168 7.18613C13.0525 7.17282 12.9914 7.14695 12.937 7.11C10.18 5.239 5.989 5.23 3.276 6.19C3.21402 6.21187 3.14833 6.22131 3.0827 6.21779C3.01707 6.21427 2.95277 6.19786 2.89348 6.16949C2.83419 6.14112 2.78107 6.10135 2.73715 6.05245C2.69322 6.00355 2.65937 5.94648 2.6375 5.8845C2.61563 5.82252 2.60619 5.75683 2.60971 5.6912C2.61323 5.62557 2.62964 5.56127 2.65801 5.50198C2.68638 5.44269 2.72615 5.38957 2.77505 5.34565C2.82395 5.30172 2.88102 5.26786 2.943 5.246C5.894 4.203 10.467 4.225 13.5 6.282C13.6093 6.35696 13.6845 6.4721 13.7092 6.6023C13.7339 6.7325 13.7062 6.86719 13.632 6.977Z" fill="black"/>
</g>
<defs>
<clipPath id="clip0_325_1494">
<rect width="16" height="16" fill="white"/>
</clipPath>
</defs>
</svg>
