<svg width="16" height="16" viewBox="0 0 16 16" fill="none" xmlns="http://www.w3.org/2000/svg">
<path d="M0 1.77606C0 1.26125 0.180185 0.836541 0.540541 0.501931C0.900896 0.167305 1.36937 0 1.94595 0C2.51223 0 2.97039 0.164726 3.32046 0.494209C3.68082 0.833977 3.861 1.2767 3.861 1.82239C3.861 2.3166 3.68598 2.72843 3.33591 3.05792C2.97555 3.39768 2.50193 3.56757 1.91506 3.56757H1.89961C1.33333 3.56757 0.875166 3.39768 0.525097 3.05792C0.175027 2.71815 0 2.29086 0 1.77606ZM0.200772 15.2896V4.97297H3.62934V15.2896H0.200772ZM5.52896 15.2896H8.95753V9.52896C8.95753 9.16859 8.99872 8.89059 9.08108 8.69498C9.22522 8.34491 9.44402 8.0489 9.73745 7.80695C10.0309 7.56499 10.399 7.44402 10.8417 7.44402C11.9949 7.44402 12.5714 8.22136 12.5714 9.77606V15.2896H16V9.37452C16 7.8507 15.6396 6.69498 14.9189 5.90734C14.1982 5.11969 13.2458 4.72587 12.0618 4.72587C10.7336 4.72587 9.69884 5.2973 8.95753 6.44015V6.47104H8.94208L8.95753 6.44015V4.97297H5.52896C5.54954 5.30244 5.55985 6.32689 5.55985 8.04633C5.55985 9.76576 5.54954 12.1802 5.52896 15.2896Z" fill="black"/>
</svg>
